<svg width="512" height="512" viewBox="0 0 512 512" fill="none" xmlns="http://www.w3.org/2000/svg">
  <rect width="512" height="512" rx="120" fill="url(#bg)"/>
  <circle cx="256" cy="228" r="116" fill="#F4E7D8"/>
  <path d="M182 434C190.8 346.4 221.2 307.6 256 307.6C290.8 307.6 321.2 346.4 330 434" fill="#1F2A44"/>
  <path d="M201.2 220.4C201.2 172.6 235.2 138.6 283 138.6C330.8 138.6 364.8 172.6 364.8 220.4V233.2H201.2V220.4Z" fill="#1F2A44"/>
  <ellipse cx="256" cy="214" rx="86" ry="98" fill="#F2C49A"/>
  <path d="M187 194C187 145.8 223 110 271.2 110C319.4 110 355.4 145.8 355.4 194V208.8H187V194Z" fill="#0F172A"/>
  <path d="M163.4 401.2C181.6 352 216.2 330.4 256 330.4C295.8 330.4 330.4 352 348.6 401.2" fill="#0F172A"/>
  <circle cx="232" cy="216" r="8" fill="#0F172A"/>
  <circle cx="280" cy="216" r="8" fill="#0F172A"/>
  <path d="M232 262C241.4 274.2 269.6 274.2 280 262" stroke="#0F172A" stroke-width="8" stroke-linecap="round"/>
  <defs>
    <linearGradient id="bg" x1="56" y1="56" x2="460" y2="456" gradientUnits="userSpaceOnUse">
      <stop stop-color="#0EA5E9"/>
      <stop offset="1" stop-color="#8B5CF6"/>
    </linearGradient>
  </defs>
</svg>
